<?xml version="1.0" encoding="UTF-8"?>
<svg xmlns="http://www.w3.org/2000/svg" viewBox="0 0 1200 630">
  <defs>
    <style>
      .bg { fill: #000000; }
      .logo { fill: #ffffff; }
    </style>
  </defs>
  
  <!-- Fondo negro -->
  <rect class="bg" width="1200" height="630"/>
  
  <!-- Logo centrado -->
  <g transform="translate(600, 315) scale(1.2, 1.2) translate(-158.35, -112.2)">
    <g>
      <g>
        <path class="logo" d="M1.2,92c0-6.2.2-13.7.4-22.6.2-8.8.2-16.3.2-22.6s0-9.4-.1-14.7c0-5.3-.2-10.7-.2-16.1,0-2.7-.1-5.2-.2-7.6V1.8h46.3c9.3,0,16.7.5,22.3,1.5s10,3,13.2,6.1,4.8,7.7,4.8,13.8-.9,8.5-2.8,11.5c-1.9,2.9-5.3,5.2-10.4,6.8-5.1,1.6-12.6,2.6-22.3,3v1.9c10.1.4,17.8,1.3,23.2,2.8s9.2,3.6,11.3,6.4,3.2,6.6,3.2,11.5-1.4,11.6-4.3,15.2c-2.9,3.6-7.2,6.1-13,7.6s-13.4,2.2-23,2.2H1.4l-.2-.1ZM43.6,38.1c2.2,0,4-.6,5.4-1.7s2.1-3,2.1-5.6-.7-4.3-2.2-5.3-3.4-1.5-5.8-1.5h-7.1v14.2h7.6v-.1ZM43.8,67.5c2.1,0,3.9-.2,5.4-.6s2.7-1.2,3.5-2.2c.8-1.1,1.2-2.5,1.2-4.4s-.9-4.3-2.7-5.3c-1.8-1-4.4-1.5-7.8-1.5h-7.4v14.2h7.8v-.2Z"/>
        <path class="logo" d="M93.3,92c0-3.3.2-8.2.4-14.6,0-5,.1-10.1.2-15.2v-15.2c0-5.1,0-15.3-.2-27.4,0-3-.1-6-.2-8.9,0-3,0-5.9-.2-8.8h48.3c9.2,0,16.7.7,22.4,2s10.2,3.8,13.2,7.3c3.1,3.5,4.6,8.5,4.6,14.9s-1.1,11.4-3.2,14.9c-2.2,3.6-5.5,6.1-10.1,7.6s-10.7,2.2-18.3,2.2v2.1c11.5,0,19.6,1.4,24.4,4.3,4.8,2.8,7.2,7.3,7.2,13.3s.4,5.9,1.2,10.8,1.6,8.4,2.4,10.6h-38.4c-.2-2-.5-4.8-.8-8.4-.3-3.2-.5-7.3-.5-12.2s-.2-4.1-.5-5.3c-.3-1.2-1-2-2-2.6s-2.7-.8-5.1-.8h-9.3c0,1.6-.1,5.3-.1,11.2s0,11,.1,15.3v2.8h-35.5v.1ZM135.6,43.4c2.9,0,5.2-.7,7-2.1,1.7-1.4,2.6-3.7,2.6-7s-.4-3.9-1.2-5.2c-.8-1.3-2-2.1-3.4-2.7-1.5-.5-3.2-.8-5.4-.8h-6.7v17.7h7.2l-.1.1Z"/>
        <path class="logo" d="M188.4,92c.4-10,.6-25,.6-45.1s-.2-35-.6-45h35.4c-.4,10-.6,25-.6,44.9s.2,35.1.6,45.2h-35.4Z"/>
        <path class="logo" d="M274.8,93.4c-10,0-18.2-.9-24.7-2.7-6.5-1.8-11.7-4.9-15.5-9.4s-6.1-10.7-6.9-18.8l38.7-3.1c0,2.8.6,5.2,1.8,7.3,1.2,2.1,3.6,3.1,7,3.1h5.5v-7.1c0-2-.2-3.5-.6-4.5-.4-1-1.2-1.8-2.4-2.3s-3.1-.8-5.7-.8c-11.3,0-20-1.1-26.3-3.2-6.3-2.2-10.6-5.1-12.9-8.8-2.4-3.7-3.5-8.3-3.5-13.7,0-9.6,3.9-16.9,11.7-21.9s18.1-7.5,30.8-7.5,25.5,3,32.8,8.9,11.3,15.3,12.1,27.9l-35.7,2.2v-1.8c0-3.2-.3-5.6-.6-7.3-.4-1.6-1.3-2.9-2.7-3.8-1.5-.9-3.8-1.4-7-1.4h-5.7c0,1.9,0,3.3.1,4.2v4.4c0,2,.2,3.7.6,4.9.4,1.2,1.3,2.2,2.5,2.9,1.2.7,3,1.1,5.4,1.1,11.9,0,20.9.8,27,2.4s10.2,3.9,12.3,7,3.2,7.4,3.2,12.8-1.8,11.3-5.4,15.6c-3.6,4.3-8.6,7.6-14.8,9.9-6.3,2.2-13.3,3.4-21.1,3.4v.1Z"/>
      </g>
      <g>
        <path class="logo" d="M23.6,189.4c.5-19.4.7-33.8.7-43.5s0-14.8-.2-20.2c-6.1,0-16.5.2-24,.5v-26.9h87.2v26.9c-6.5-.3-20.6-.5-28-.5v7.1c0,3.3,0,6.7-.1,10.3v5.9c0,13.6.1,27,.4,40.3H23.7l-.1.1Z"/>
        <path class="logo" d="M107.9,186.3c-6.4-3.1-11-8.1-13.8-14.9s-4.3-15.9-4.3-27.2,1.5-20.2,4.4-26.9c2.9-6.8,7.2-12.3,13.7-14.9,7.6-3.1,24.6-4.7,47.8-4.7s38.9.9,47.2,4.8c6.5,3.1,11.2,8.2,14.2,15.1s4.5,16,4.5,27.3-1.5,19.9-4.5,26.6-7.7,11.7-14.1,14.8c-3.9,1.9-23,4.7-43.2,4.7s-45.5-1.6-51.8-4.7h-.1ZM158.6,166.3h6.4v-20.5c0-4.1-.3-7.8-.8-11.2-.6-3.4-1.5-6.2-2.9-8.3-1.4-2.2-3.3-3.2-5.7-3.2h-13.7v20.1c0,4.1.3,7.9.9,11.3.6,3.5,1.6,6.3,3.1,8.6,1.5,2.2,10.3,3.4,12.8,3.4l-.1-.2Z"/>
        <path class="logo" d="M225.7,189.4c.4-16.8.6-31.8.6-45s-.2-28.3-.6-45.1h36.1c-.3,13.3-.5,26.8-.5,40.6s0,16,.2,22.3c9.1,0,38.3,0,42.8-.1h9.9l-2.6,27.4h-86l.1-.1Z"/>
      </g>
      <rect class="logo" y="197.8" width="280.5" height="21.4"/>
      <path class="logo" d="M300.6,224.4c-3.8,0-6.8-.5-9-1.5s-3.8-2.6-4.7-4.7c-1-2.2-1.5-5.2-1.5-9s.5-6.8,1.5-9,2.6-3.7,4.7-4.7c2.2-1,5.2-1.4,9-1.4s6.8.5,9,1.4c2.2,1,3.8,2.5,4.7,4.7,1,2.2,1.5,5.2,1.5,9s-.5,6.8-1.5,9-2.6,3.8-4.7,4.7c-2.2,1-5.2,1.5-9,1.5ZM300.6,222.1c3.2,0,5.8-.4,7.7-1.2,1.9-.8,3.2-2.2,4-4,.8-1.9,1.2-4.4,1.2-7.7s-.4-5.8-1.2-7.7c-.8-1.9-2.2-3.2-4-4-1.9-.8-4.4-1.2-7.7-1.2s-5.8.4-7.7,1.2c-1.9.8-3.2,2.2-4,4-.8,1.9-1.2,4.4-1.2,7.7s.4,5.8,1.2,7.7c.8,1.9,2.2,3.2,4,4,1.9.8,4.4,1.2,7.7,1.2ZM291.4,219.1v-19.6h10.5c2,0,3.6.1,4.9.4,1.3.3,2.2.8,2.9,1.6.7.8,1,1.9,1,3.3s-.2,2.5-.7,3.2c-.5.8-1.2,1.3-2.2,1.7-1,.3-2.3.5-4,.5v.5c2.5,0,4.3.3,5.3.9,1.1.6,1.6,1.6,1.6,2.9s0,.5,0,.9c0,.3.1.7.2,1.2.4,2.2.7,3.6.9,4.2l-7.6,2.7c-.6-1.4-1-2.8-1.2-4.2-.2-1.5-.2-2.9-.2-4.4s0-.9,0-1.2-.2-.4-.4-.6c-.2-.1-.6-.2-1.1-.2h-2.1v6.4h-7.8v-.2ZM300.1,208.5c.6,0,1.1-.2,1.5-.5s.6-.8.6-1.5,0-.9-.3-1.1c-.2-.3-.4-.5-.8-.6-.3-.1-.7-.2-1.2-.2h-1.5v3.9h1.7Z"/>
    </g>
  </g>
</svg>