<?xml version="1.0" encoding="UTF-8"?>
<svg id="Layer_2" data-name="Layer 2" xmlns="http://www.w3.org/2000/svg" viewBox="0 0 112.04 100.31">
  <defs>
    <style>
      .cls-1 {
        fill: #f31014;
      }
    </style>
  </defs>
  <g id="Capa_1" data-name="Capa 1">
    <g>
      <path class="cls-1" d="M0,95.01c.08-6.56.21-14.49.37-23.78.17-9.3.25-17.22.25-23.78,0-4.73-.04-9.9-.12-15.5-.08-5.6-.17-11.27-.25-17-.08-2.82-.15-5.5-.19-8.03-.04-2.53-.06-4.84-.06-6.91h48.81c9.79,0,17.64.52,23.53,1.56,5.89,1.04,10.52,3.17,13.88,6.41,3.36,3.24,5.04,8.09,5.04,14.57,0,4.98-.98,9.01-2.93,12.08-1.95,3.07-5.62,5.46-11.02,7.16-5.4,1.7-13.24,2.76-23.53,3.17v1.99c10.62.42,18.78,1.39,24.47,2.93,5.69,1.54,9.65,3.78,11.89,6.72,2.24,2.95,3.36,6.99,3.36,12.14,0,6.89-1.52,12.22-4.54,16-3.03,3.78-7.6,6.43-13.7,7.97-6.1,1.54-14.18,2.3-24.22,2.3H0ZM44.7,38.1c2.32,0,4.23-.6,5.73-1.81,1.49-1.2,2.24-3.17,2.24-5.92s-.77-4.52-2.3-5.6c-1.54-1.08-3.59-1.62-6.16-1.62h-7.47v14.94h7.97ZM44.95,69.11c2.24,0,4.15-.23,5.73-.68,1.58-.46,2.8-1.25,3.67-2.37.87-1.12,1.31-2.68,1.31-4.67,0-2.66-.96-4.52-2.86-5.6-1.91-1.08-4.65-1.62-8.22-1.62h-7.84v14.94h8.22Z"/>
      <path class="cls-1" d="M101.73,100.31c-2.6,0-4.63-.33-6.11-.99-1.48-.66-2.55-1.73-3.21-3.21-.66-1.48-.99-3.52-.99-6.11s.33-4.61.99-6.09c.66-1.48,1.73-2.54,3.21-3.2,1.48-.65,3.52-.98,6.11-.98s4.63.33,6.11.98c1.48.65,2.55,1.72,3.21,3.2.66,1.48.99,3.51.99,6.09s-.33,4.63-.99,6.11c-.66,1.48-1.73,2.55-3.21,3.21-1.48.66-3.52.99-6.11.99ZM101.73,98.79c2.2,0,3.93-.28,5.2-.84,1.26-.56,2.17-1.47,2.73-2.75.56-1.27.84-3.01.84-5.21s-.28-3.93-.84-5.2c-.56-1.26-1.47-2.17-2.73-2.73-1.26-.56-3-.84-5.2-.84s-3.93.28-5.2.84c-1.26.56-2.17,1.47-2.73,2.73-.56,1.26-.84,3-.84,5.2s.28,3.94.84,5.21c.56,1.27,1.47,2.19,2.73,2.75,1.26.56,3,.84,5.2.84ZM95.49,96.73c.02-.41.03-.82.03-1.22s0-.8.03-1.2c.02-.7.03-1.41.04-2.11,0-.7.01-1.41.01-2.11s0-1.41-.01-2.1c0-.7-.02-1.4-.04-2.1-.02-.41-.03-.83-.03-1.24s0-.83-.03-1.24h7.14c1.36,0,2.47.1,3.33.3.86.2,1.52.56,1.97,1.08.46.52.68,1.26.68,2.2s-.16,1.68-.49,2.2c-.33.52-.83.9-1.5,1.12-.67.22-1.57.33-2.71.33v.31c1.7,0,2.91.21,3.62.63.71.42,1.07,1.08,1.07,1.97,0,.16.02.35.05.58.03.23.08.49.13.79.26,1.51.46,2.46.59,2.84l-5.16,1.81c-.43-.93-.7-1.89-.81-2.88-.11-.99-.17-1.99-.17-3,0-.36-.02-.63-.06-.8-.04-.17-.14-.3-.3-.37-.15-.08-.4-.12-.75-.12h-1.39c-.02.46-.02,1.07-.01,1.83,0,.76.01,1.45.01,2.09v.41h-5.26ZM101.39,89.53c.43,0,.77-.1,1.03-.31s.39-.55.39-1.03c0-.33-.06-.58-.18-.77-.12-.19-.29-.32-.52-.4-.22-.08-.49-.12-.8-.12h-1.01v2.63h1.08Z"/>
    </g>
  </g>
</svg>